<svg version="1.1" id="Capa_1" xmlns="http://www.w3.org/2000/svg" x="0" y="0" viewBox="0 0 512 512" xml:space="preserve"><circle cx="256" cy="256" r="256" fill="#ffd93b"/><path d="M512 256c0 141.44-114.64 256-256 256-80.48 0-152.32-37.12-199.28-95.28 43.92 35.52 99.84 56.72 160.72 56.72 141.36 0 256-114.56 256-256 0-60.88-21.2-116.8-56.72-160.72C474.8 103.68 512 175.52 512 256z" fill="#f4c534"/><path d="M498.528 182.64c0 56.864-41.072 113.904-112.368 113.904-45.824 0-88.608-26.144-106.096-68.416-6.112-14.768-14.096-24.944-24.112-24.944-10.016 0-18 10.176-24.096 25.12-17.152 42.096-59.744 68.24-105.408 68.24h-.512C1.68 296.544-30.736 124.08 85.36 79.6c52.112-19.872 114.416-28.176 170.592-28.176 56.352 0 118.656 8.32 170.768 28.352 49.232 18.848 71.808 60.944 71.808 102.864z" fill="#303538"/><path d="M386.16 275.328c-38.64 0-72.592-21.712-86.48-55.296-12.992-31.472-30.944-38.064-43.712-38.064-12.8 0-30.784 6.64-43.744 38.288-13.408 32.96-47.872 55.072-85.776 55.072-56.448 0-83.744-40.24-90.112-74.704C30 166.368 41.024 119.312 92.96 99.408 138.272 82.16 196.16 72.64 255.968 72.64c60.016 0 117.968 9.568 163.168 26.944 36.432 13.952 58.192 45.008 58.192 83.072-.016 44.912-31.968 92.672-91.168 92.672z" fill="#3e4347"/><path d="M143.552 84.56L35.248 192.848c.272 2.64.608 5.232 1.072 7.76 1.008 5.424 2.576 10.976 4.656 16.496L180.112 77.968c-12.56 1.776-24.768 3.968-36.56 6.592zm54.4-8.784L45.776 227.952c8.592 16.512 22.496 31.568 42.672 40.08L283.104 73.376c-8.992-.432-18.032-.736-27.152-.736-19.68 0-39.104 1.136-58 3.136zM419.12 99.584c-.736-.288-1.536-.512-2.272-.8L298.352 217.28c.432.96.896 1.728 1.312 2.752 2.464 5.952 5.744 11.376 9.392 16.528L436.88 108.736c-5.488-3.504-11.296-6.688-17.76-9.152zm-49.056 174.352l106.048-106.048c-3.328-21.136-13.888-39.296-30.112-52.64l-130 130c13.824 15.04 32.752 25.248 54.064 28.688z" fill="#5a5f63"/><path d="M372.208 392.64c-15.728 25.776-45.056 49.824-119.376 65.216-75.2 17.568-98.48-15.248-113.856-70.32-16.496-55.728.672-92.096 120.976-65.008 119.44 23.664 128.4 44.208 112.256 70.112z" fill="#3e4347"/><path d="M310.416 393.952c15.12 3.152 30.64 4.544 46.704 3.408-30.672 23.664-74.48 43.696-103.824 46.176-74.72 14.4-91.04-23.36-97.76-45.92 30.08 3.36 52.32-1.92 52.32-1.92-19.84-4.16-43.68-14.24-57.76-20.64-4.16-23.04-1.76-57.44 103.36-36.96 52.96 8.8 93.728 23.76 107.008 31.92-17.008 16.016-50.048 23.936-50.048 23.936z" fill="#fff"/></svg>