<svg version="1.1" id="Capa_1" xmlns="http://www.w3.org/2000/svg" x="0" y="0" viewBox="0 0 512.554 512.554" xml:space="preserve"><circle cx="256.277" cy="256.277" r="256" fill="#ffd93b"/><path d="M512.277 256.277c0 141.44-114.64 256-256 256-80.48 0-152.32-37.12-199.28-95.28 43.92 35.52 99.84 56.72 160.72 56.72 141.36 0 256-114.56 256-256 0-60.88-21.2-116.8-56.72-160.72 58.08 46.96 95.28 118.8 95.28 199.28z" fill="#f4c534"/><path d="M190.261 279.141c-41.408 15.888-180.16 39.264-143.024-125.328 63.04-13.76 121.552-9.824 181.488 6.72 20.192 86.512-2.56 105.072-38.464 118.608zm132.112 0c41.408 15.888 180.16 39.264 143.024-125.328-63.04-13.76-121.552-9.824-181.472 6.72-20.208 86.512 2.528 105.072 38.448 118.608z" fill="#fff"/><g fill="#3e4347"><path d="M503.349 146.469c-31.904-11.184-112.672-32.176-214.432-5.264-5.52 1.888-9.024 4.72-11.312 9.024-10.016 17.456-34.24 14.8-42.4 0-2.416-4.304-5.92-7.136-11.568-9.024-101.76-26.912-182.528-5.92-214.432 5.264-7.136 2.688-11.04 10.368-8.352 17.488 2.416 7.136 10.368 11.04 17.504 8.352a291.948 291.948 0 0115.616-4.72c-5.648 31.36-9.968 90.192 30.56 115.632 54.784 34.192 150.896 8.752 171.76-24.24 6.592-10.224 9.152-23.824 9.696-38.096 0-13.28 19.888-15.616 20.464-.672.544 14.544 3.36 28.272 9.824 38.768 20.864 32.976 116.976 58.416 171.76 24.24 40.512-25.44 36.208-84.272 30.56-115.632a291.948 291.948 0 0115.616 4.72c7.136 2.688 15.072-1.216 17.504-8.352 2.656-7.136-1.248-14.8-8.368-17.488zm-284.16 101.76c-15.072 23.552-97.456 46.848-143.888 17.76-33.792-21.392-24.624-80.496-19.52-103.648 37.696-7.536 96.24-12.24 164.352 6.336 4.72 22.208 10.24 61.648-.944 79.552zm218.064 17.76c-46.432 29.072-128.816 5.792-143.888-17.76-11.168-17.904-5.648-57.344-.944-79.552 68.112-18.576 126.656-13.856 164.352-6.336 5.104 23.152 14.272 82.24-19.52 103.648z"/><path d="M370.037 220.997c0 20.096-16.016 36.256-36.256 36.256-19.952 0-36.4-16.16-36.256-36.256 0-19.952 16.304-36.256 36.256-36.256 20.096-.144 36.256 16.304 36.256 36.256z"/></g><ellipse transform="rotate(-134.999 320.052 207.28)" cx="320.051" cy="207.279" rx="6.288" ry="10.624" fill="#fff"/><path d="M215.029 220.997c0 20.096-16.016 36.256-36.256 36.256-19.952 0-36.4-16.16-36.256-36.256 0-19.952 16.304-36.256 36.256-36.256 20.096-.144 36.256 16.304 36.256 36.256z" fill="#3e4347"/><ellipse transform="rotate(-135.008 165.041 207.218)" cx="165.041" cy="207.216" rx="6.288" ry="10.624" fill="#fff"/><path d="M390.725 384.869c-29.024 39.2-78.24 65.008-134.496 65.008-56.016 0-105.232-25.808-134.272-65.008-8.848-11.68-.688-29.216 13.376-29.216h241.776c14.08-.016 22.24 17.52 13.616 29.216z" fill="#3e4347"/><path d="M377.125 355.637H135.349c-1.568 0-3.04.288-4.448.688 14.544 28.48 65.12 32.272 125.376 32.272 60.384 0 110.864-3.792 125.376-32.256-1.424-.416-2.928-.704-4.528-.704z" fill="#fff"/><path d="M256.229 449.877c24.704 0 47.92-5.216 68.8-14.128-.64-24.32-25.104-41.104-48.384-31.968-26.832 10.848-37.904-2.496-53.92-2.496-19.2 0-34.752 15.328-35.216 34.416 20.88 8.944 44.08 14.176 68.72 14.176z" fill="#e24b4b"/></svg>