<svg id="Capa_1" height="512" viewBox="0 0 510 510" width="512" xmlns="http://www.w3.org/2000/svg" xmlns:xlink="http://www.w3.org/1999/xlink"><radialGradient id="SVGID_1_" cx="93.026" cy="112.056" gradientUnits="userSpaceOnUse" r="475.871"><stop offset="0" stop-color="#fcb37e"/><stop offset=".182" stop-color="#f8b07b"/><stop offset=".373" stop-color="#eba774"/><stop offset=".569" stop-color="#d69867"/><stop offset=".767" stop-color="#b98255"/><stop offset=".965" stop-color="#93673e"/><stop offset="1" stop-color="#8c6239"/></radialGradient><linearGradient id="lg1"><stop offset="0" stop-color="#8c6239" stop-opacity="0"/><stop offset="1" stop-color="#8c6239"/></linearGradient><linearGradient id="SVGID_2_" gradientUnits="userSpaceOnUse" x1="260.191" x2="188.897" xlink:href="#lg1" y1="317.358" y2="486.682"/><linearGradient id="SVGID_3_" gradientUnits="userSpaceOnUse" x1="276.364" x2="137.117" xlink:href="#lg1" y1="208.719" y2="410.348"/><linearGradient id="lg2"><stop offset="0" stop-color="#f8f6fb" stop-opacity="0"/><stop offset=".447" stop-color="#d1efbd" stop-opacity=".447"/><stop offset="1" stop-color="#9ee66a"/></linearGradient><linearGradient id="SVGID_4_" gradientUnits="userSpaceOnUse" x1="307.095" x2="492.562" xlink:href="#lg2" y1="236.276" y2="241.288"/><linearGradient id="SVGID_5_" gradientUnits="userSpaceOnUse" x1="168.05" x2="298.378" xlink:href="#lg2" y1="103.779" y2="142.209"/><linearGradient id="SVGID_6_" gradientUnits="userSpaceOnUse" x1="-15.97" x2="97.65" xlink:href="#lg2" y1="234.873" y2="283.329"/><path d="M441.09 374.507c-4.888-1.272-7.083-6.862-4.545-11.229 5.755-9.899 9.035-21.386 9.035-33.591 0-34.78-26.628-63.732-61.28-66.714l-.038-.003a3.04 3.04 0 01-2.654-3.895 69.132 69.132 0 002.774-19.421c0-29.54-18.56-55.048-45.057-64.93a10.684 10.684 0 00-.39-.135c-19.863-6.403-32.705-25.659-29.967-46.348.355-2.681.58-5.401.668-8.155.488-15.183-3.107-29.482-9.769-41.889-8.384-15.614-31.987-9.74-32.175 7.982-.003.321-.009.643-.015.965-.39 18.156-6.446 35.016-16.475 48.847-14.523 20.028-37.331 32.42-61.975 34.6l-.421.037c-35.764 3.164-63.187 33.122-63.187 69.025 0 6.731.97 13.248 2.774 19.421a3.04 3.04 0 01-2.654 3.894l-.038.003c-34.652 2.982-61.28 31.934-61.28 66.714 0 12.205 3.28 23.692 9.035 33.591 2.539 4.367.343 9.957-4.545 11.229-28.464 7.409-49.111 33.302-49.111 63.667 0 34.287 26.324 62.879 60.504 65.589C129.912 507.695 190.104 510 255 510s125.088-2.305 174.697-6.238c34.18-2.71 60.504-31.302 60.504-65.589 0-30.364-20.647-56.257-49.111-63.666z" fill="url(#SVGID_1_)"/><path d="M64.419 329.687c0 34.78 26.628 63.732 61.28 66.714 37.691 3.244 81.951 5.112 129.3 5.112s91.609-1.869 129.3-5.112c34.652-2.982 61.28-31.934 61.28-66.714s-26.628-63.732-61.28-66.714c-37.691-3.244-81.951-5.112-129.3-5.112s-91.609 1.869-129.3 5.112c-34.652 2.981-61.28 31.933-61.28 66.714z" fill="url(#SVGID_2_)"/><path d="M125.618 239.654c0 35.93 27.459 65.859 63.249 69.03 20.314 1.8 42.664 2.796 66.133 2.796s45.82-.996 66.133-2.796c35.789-3.171 63.249-33.101 63.249-69.03 0-35.93-27.459-65.859-63.249-69.03-20.314-1.8-42.664-2.796-66.133-2.796s-45.82.996-66.133 2.796c-35.79 3.17-63.249 33.1-63.249 69.03z" fill="url(#SVGID_3_)"/><path d="M435.313 136.298c-2.22-5.614 3.882-10.866 9.129-7.882 18.541 10.544 45.759 32.24 45.759 68.751 0 55.369-66.696 60.59-66.696 101.604 0 21.048 2.788 35.583 5.502 44.747 1.57 5.3-3.853 9.971-8.85 7.607-16.618-7.861-42.177-27.043-42.177-70.67 0-64.64 66.141-63.678 66.141-99.021.001-18.456-4.504-34.253-8.808-45.136z" fill="url(#SVGID_4_)"/><path d="M242.665 3.577c-1.448-2.471 2.428-4.725 5.024-2.929C265.306 12.83 295.1 38.586 295.1 73.431c0 49.471-56.386 63.476-63.9 102.054-6.077 31.206 7.852 61.583 14.239 73.382 1.108 2.047-1.443 4.124-4.084 3.333-19.43-5.819-71.698-27.381-63.893-89.502 7.562-60.18 64.124-57.431 74.162-96.367 7.208-27.958-1.677-50.326-8.959-62.754z" fill="url(#SVGID_5_)"/><path d="M53.103 180.787c-1.98-4.632 2.169-8.966 6.207-6.504 14.265 8.7 35.597 26.604 37.878 56.731 3.46 45.689-45.16 49.997-42.597 83.84 1.315 17.368 4.27 29.362 6.834 36.924 1.483 4.373-2.204 8.228-6.019 6.277-12.687-6.486-32.643-22.315-35.37-58.315-4.04-53.339 44.56-52.545 42.351-81.709-1.152-15.228-5.445-28.264-9.284-37.244z" fill="url(#SVGID_6_)"/></svg>